<svg width="25" height="25" viewBox="0 0 25 25" fill="none" xmlns="http://www.w3.org/2000/svg">
<g clip-path="url(#clip0_10414_294)">
<path d="M2.92345 13.4538H22.94C23.765 13.4538 24.4338 12.7851 24.4338 11.9601C24.4338 11.1351 23.765 10.4663 22.94 10.4663H2.92345C2.09845 10.4663 1.42969 11.1351 1.42969 11.9601C1.42964 12.7851 2.09845 13.4538 2.92345 13.4538Z" fill="#666666"/>
<path d="M14.4254 7.24432C13.9894 7.24432 13.6348 7.59898 13.6348 8.03496V9.05998H19.7538V8.03496C19.7538 7.59898 19.3991 7.24432 18.9631 7.24432H14.4254Z" fill="#666666"/>
<path d="M4.70217 8.03502C4.70217 6.82363 5.68767 5.83813 6.89906 5.83813H11.4368C12.0133 5.83813 12.5383 6.06163 12.9306 6.42613C13.3229 6.06163 13.8479 5.83813 14.4243 5.83813H18.9621C20.1735 5.83813 21.159 6.82363 21.159 8.03502V9.06004H23.4412V4.21691C23.4412 3.39191 22.7724 2.72314 21.9475 2.72314H3.91369C3.08869 2.72314 2.41992 3.39191 2.41992 4.21691V9.06004H4.70217V8.03502Z" fill="#666666"/>
<path d="M6.90002 7.24432C6.46403 7.24432 6.10938 7.59898 6.10938 8.03496V9.05998H12.2284V8.03496C12.2284 7.59898 11.8737 7.24432 11.4377 7.24432H6.90002Z" fill="#666666"/>
<path d="M0.931641 14.86V21.3296H2.33789V18.7657H23.5254V21.3296H24.9316V14.86H0.931641Z" fill="#666666"/>
</g>
<defs>
<clipPath id="clip0_10414_294">
<rect width="24" height="24" fill="white" transform="translate(0.931641 0.0263672)"/>
</clipPath>
</defs>
</svg>
