<svg width="25" height="25" viewBox="0 0 25 25" fill="none" xmlns="http://www.w3.org/2000/svg">
<g clip-path="url(#clip0_10414_272)">
<path d="M20.5523 10.2503C20.8332 10.2503 21.0608 10.0226 21.0608 9.74175V8.1103C21.0608 7.8294 20.8332 7.60172 20.5523 7.60172L19.8284 7.60612L17.4531 10.2503H20.5523Z" fill="#666666"/>
<path d="M5.30741 10.2502H8.43093L6.01448 7.60162H5.30741C5.02652 7.60162 4.79883 7.82931 4.79883 8.11021V9.74153C4.79883 10.0225 5.02652 10.2502 5.30741 10.2502Z" fill="#666666"/>
<path d="M13.2222 12.8729L17.9354 7.60172H7.92578L12.7164 12.8749C12.8522 13.0244 13.0876 13.0235 13.2222 12.8729Z" fill="#666666"/>
<path d="M14.5497 20.2909H13.6741V14.3723C13.4641 14.4935 13.2241 14.5598 12.9765 14.5608C12.9747 14.5608 12.9728 14.5608 12.971 14.5608C12.7216 14.5608 12.4795 14.4944 12.2678 14.3722V20.2909H11.3125C10.9242 20.2909 10.6094 20.6057 10.6094 20.9941C10.6094 21.3824 10.9242 21.6973 11.3125 21.6973H14.5498C14.9381 21.6973 15.2529 21.3824 15.2529 20.9941C15.2529 20.6057 14.9381 20.2909 14.5497 20.2909Z" fill="#666666"/>
<path d="M6.86133 12.2066H2.33799V3.87145C2.33799 3.48311 2.02316 3.16827 1.63482 3.16827C1.24648 3.16827 0.931641 3.48311 0.931641 3.87145V21.0504C0.931641 21.4387 1.24648 21.7535 1.63482 21.7535C2.02316 21.7535 2.33799 21.4387 2.33799 21.0504V15.798H7.45069V21.0504C7.45069 21.4387 7.76552 21.7535 8.15387 21.7535C8.54221 21.7535 8.85704 21.4387 8.85704 21.0504V14.2023C8.85704 13.1019 7.96176 12.2066 6.86133 12.2066Z" fill="#666666"/>
<path d="M24.2288 3.16827C23.8404 3.16827 23.5256 3.48311 23.5256 3.87145V12.2066H19.107C18.0066 12.2066 17.1113 13.1019 17.1113 14.2023V21.0504C17.1113 21.4387 17.4262 21.7535 17.8145 21.7535C18.2028 21.7535 18.5177 21.4387 18.5177 21.0504V15.7969H23.5256V21.0504C23.5256 21.4387 23.8405 21.7535 24.2288 21.7535C24.6171 21.7535 24.932 21.4387 24.932 21.0504V3.87145C24.9319 3.48311 24.6171 3.16827 24.2288 3.16827Z" fill="#666666"/>
</g>
<defs>
<clipPath id="clip0_10414_272">
<rect width="24" height="24" fill="white" transform="translate(0.931641 0.460938)"/>
</clipPath>
</defs>
</svg>
