<svg width="25" height="25" viewBox="0 0 25 25" fill="none" xmlns="http://www.w3.org/2000/svg">
<g clip-path="url(#clip0_10414_306)">
<path d="M24.5566 7.99121H1.30664C1.09918 7.99121 0.931641 7.82367 0.931641 7.61621V6.11548C0.931641 5.90802 1.09918 5.74048 1.30664 5.74048H24.5566C24.7641 5.74048 24.9316 5.90802 24.9316 6.11548V7.61621C24.9316 7.82367 24.7641 7.99121 24.5566 7.99121ZM1.68164 7.24121H24.1816V6.49048H1.68164V7.24121Z" fill="#666666"/>
<path d="M1.68164 19.623C1.47418 19.623 1.30664 19.4554 1.30664 19.248V7.68304C1.30664 7.47559 1.47418 7.30804 1.68164 7.30804C1.8891 7.30804 2.05664 7.47559 2.05664 7.68304V19.248C2.05664 19.4554 1.8891 19.623 1.68164 19.623Z" fill="#666666"/>
<path d="M2.80664 19.623C2.59918 19.623 2.43164 19.4554 2.43164 19.248V7.68304C2.43164 7.47559 2.59918 7.30804 2.80664 7.30804C3.0141 7.30804 3.18164 7.47559 3.18164 7.68304V19.248C3.18164 19.4554 3.0141 19.623 2.80664 19.623Z" fill="#666666"/>
<path d="M23.0566 19.623C22.8492 19.623 22.6816 19.4554 22.6816 19.248V7.68304C22.6816 7.47559 22.8492 7.30804 23.0566 7.30804C23.2641 7.30804 23.4316 7.47559 23.4316 7.68304V19.248C23.4316 19.4554 23.2641 19.623 23.0566 19.623Z" fill="#666666"/>
<path d="M24.1816 19.623C23.9742 19.623 23.8066 19.4554 23.8066 19.248V7.68304C23.8066 7.47559 23.9742 7.30804 24.1816 7.30804C24.3891 7.30804 24.5566 7.47559 24.5566 7.68304V19.248C24.5566 19.4554 24.3891 19.623 24.1816 19.623Z" fill="#666666"/>
<path d="M2.80664 19.623H1.68164C1.47418 19.623 1.30664 19.4554 1.30664 19.248C1.30664 19.0405 1.47418 18.873 1.68164 18.873H2.80664C3.0141 18.873 3.18164 19.0405 3.18164 19.248C3.18164 19.4554 3.0141 19.623 2.80664 19.623Z" fill="#666666"/>
<path d="M24.1816 19.623H23.0566C22.8492 19.623 22.6816 19.4554 22.6816 19.248C22.6816 19.0405 22.8492 18.873 23.0566 18.873H24.1816C24.3891 18.873 24.5566 19.0405 24.5566 19.248C24.5566 19.4554 24.3891 19.623 24.1816 19.623Z" fill="#666666"/>
<path d="M23.0566 13.2458H2.80664C2.59918 13.2458 2.43164 13.0781 2.43164 12.8708C2.43164 12.6633 2.59918 12.4958 2.80664 12.4958H23.0566C23.2641 12.4958 23.4316 12.6633 23.4316 12.8708C23.4316 13.0781 23.2641 13.2458 23.0566 13.2458Z" fill="#666666"/>
<path d="M23.0566 14.3715H2.80664C2.59918 14.3715 2.43164 14.2038 2.43164 13.9965C2.43164 13.7891 2.59918 13.6215 2.80664 13.6215H23.0566C23.2641 13.6215 23.4316 13.7891 23.4316 13.9965C23.4316 14.2038 23.2641 14.3715 23.0566 14.3715Z" fill="#666666"/>
<path d="M4.30664 13.2465C4.09918 13.2465 3.93164 13.0788 3.93164 12.8715C3.93164 11.8375 4.77246 10.9965 5.80627 10.9965C6.01355 10.9965 6.18127 11.1641 6.18127 11.3715C6.18127 11.5788 6.01355 11.7465 5.80627 11.7465C5.18646 11.7465 4.68164 12.2512 4.68164 12.8715C4.68164 13.0788 4.51392 13.2465 4.30664 13.2465Z" fill="#666666"/>
<path d="M8.05627 13.2465C7.84882 13.2465 7.68127 13.0788 7.68127 12.8715C7.68127 12.2512 7.17645 11.7465 6.55664 11.7465C6.34937 11.7465 6.18164 11.5788 6.18164 11.3715C6.18164 11.1641 6.34937 10.9965 6.55664 10.9965C7.59045 10.9965 8.43127 11.8375 8.43127 12.8715C8.43127 13.0788 8.26373 13.2465 8.05627 13.2465Z" fill="#666666"/>
<path d="M4.68164 12.2546C4.47418 12.2546 4.30664 12.0869 4.30664 11.8796V9.87152C4.30664 9.66406 4.47418 9.49652 4.68164 9.49652C4.88892 9.49652 5.05664 9.66406 5.05664 9.87152V11.8796C5.05664 12.0869 4.88892 12.2546 4.68164 12.2546Z" fill="#666666"/>
<path d="M7.67969 12.2546C7.47223 12.2546 7.30469 12.0869 7.30469 11.8796V9.87152C7.30469 9.66406 7.47223 9.49652 7.67969 9.49652C7.88696 9.49652 8.05469 9.66406 8.05469 9.87152V11.8796C8.05469 12.0869 7.88696 12.2546 7.67969 12.2546Z" fill="#666666"/>
<path d="M5.43164 10.6223C5.22418 10.6223 5.05664 10.4545 5.05664 10.2473V9.12152C5.05664 8.91406 5.22418 8.74652 5.43164 8.74652C5.6391 8.74652 5.80664 8.91406 5.80664 9.12152V10.2473C5.80664 10.4545 5.6391 10.6223 5.43164 10.6223Z" fill="#666666"/>
<path d="M6.93164 9.49652H5.43164C5.22418 9.49652 5.05664 9.3288 5.05664 9.12152C5.05664 8.91406 5.22418 8.74652 5.43164 8.74652H6.93164C7.1391 8.74652 7.30664 8.91406 7.30664 9.12152C7.30664 9.3288 7.1391 9.49652 6.93164 9.49652Z" fill="#666666"/>
<path d="M6.93164 10.6223C6.72418 10.6223 6.55664 10.4545 6.55664 10.2473V9.12152C6.55664 8.91406 6.72418 8.74652 6.93164 8.74652C7.1391 8.74652 7.30664 8.91406 7.30664 9.12152V10.2473C7.30664 10.4545 7.1391 10.6223 6.93164 10.6223Z" fill="#666666"/>
<path d="M5.43237 10.2465H4.68164C4.47418 10.2465 4.30664 10.0788 4.30664 9.87152C4.30664 9.66406 4.47418 9.49652 4.68164 9.49652H5.43237C5.63983 9.49652 5.80737 9.66406 5.80737 9.87152C5.80737 10.0788 5.63983 10.2465 5.43237 10.2465Z" fill="#666666"/>
<path d="M7.68018 10.2465H6.93164C6.72418 10.2465 6.55664 10.0788 6.55664 9.87152C6.55664 9.66406 6.72418 9.49652 6.93164 9.49652H7.68018C7.88745 9.49652 8.05518 9.66406 8.05518 9.87152C8.05518 10.0788 7.88745 10.2465 7.68018 10.2465Z" fill="#666666"/>
<path d="M6.55615 11.7465H5.80469C5.59723 11.7465 5.42969 11.5788 5.42969 11.3715C5.42969 11.1641 5.59723 10.9965 5.80469 10.9965H6.55615C6.76361 10.9965 6.93115 11.1641 6.93115 11.3715C6.93115 11.5788 6.76361 11.7465 6.55615 11.7465Z" fill="#666666"/>
<path d="M9.18164 13.2465C8.97418 13.2465 8.80664 13.0788 8.80664 12.8715C8.80664 11.8375 9.64746 10.9965 10.6813 10.9965C10.8885 10.9965 11.0563 11.1641 11.0563 11.3715C11.0563 11.5788 10.8885 11.7465 10.6813 11.7465C10.0615 11.7465 9.55664 12.2512 9.55664 12.8715C9.55664 13.0788 9.38892 13.2465 9.18164 13.2465Z" fill="#666666"/>
<path d="M12.9313 13.2465C12.7238 13.2465 12.5563 13.0788 12.5563 12.8715C12.5563 12.2512 12.0515 11.7465 11.4316 11.7465C11.2244 11.7465 11.0566 11.5788 11.0566 11.3715C11.0566 11.1641 11.2244 10.9965 11.4316 10.9965C12.4655 10.9965 13.3063 11.8375 13.3063 12.8715C13.3063 13.0788 13.1387 13.2465 12.9313 13.2465Z" fill="#666666"/>
<path d="M9.55664 12.2546C9.34918 12.2546 9.18164 12.0869 9.18164 11.8796V9.87152C9.18164 9.66406 9.34918 9.49652 9.55664 9.49652C9.76392 9.49652 9.93164 9.66406 9.93164 9.87152V11.8796C9.93164 12.0869 9.76392 12.2546 9.55664 12.2546Z" fill="#666666"/>
<path d="M12.5547 12.2546C12.3472 12.2546 12.1797 12.0869 12.1797 11.8796V9.87152C12.1797 9.66406 12.3472 9.49652 12.5547 9.49652C12.762 9.49652 12.9297 9.66406 12.9297 9.87152V11.8796C12.9297 12.0869 12.762 12.2546 12.5547 12.2546Z" fill="#666666"/>
<path d="M10.3066 10.6223C10.0992 10.6223 9.93164 10.4545 9.93164 10.2473V9.12152C9.93164 8.91406 10.0992 8.74652 10.3066 8.74652C10.5141 8.74652 10.6816 8.91406 10.6816 9.12152V10.2473C10.6816 10.4545 10.5141 10.6223 10.3066 10.6223Z" fill="#666666"/>
<path d="M11.8066 9.49652H10.3066C10.0992 9.49652 9.93164 9.3288 9.93164 9.12152C9.93164 8.91406 10.0992 8.74652 10.3066 8.74652H11.8066C12.0141 8.74652 12.1816 8.91406 12.1816 9.12152C12.1816 9.3288 12.0141 9.49652 11.8066 9.49652Z" fill="#666666"/>
<path d="M11.8066 10.6223C11.5992 10.6223 11.4316 10.4545 11.4316 10.2473V9.12152C11.4316 8.91406 11.5992 8.74652 11.8066 8.74652C12.0141 8.74652 12.1816 8.91406 12.1816 9.12152V10.2473C12.1816 10.4545 12.0141 10.6223 11.8066 10.6223Z" fill="#666666"/>
<path d="M10.3074 10.2465H9.55664C9.34918 10.2465 9.18164 10.0788 9.18164 9.87152C9.18164 9.66406 9.34918 9.49652 9.55664 9.49652H10.3074C10.5148 9.49652 10.6824 9.66406 10.6824 9.87152C10.6824 10.0788 10.5148 10.2465 10.3074 10.2465Z" fill="#666666"/>
<path d="M12.5552 10.2465H11.8066C11.5992 10.2465 11.4316 10.0788 11.4316 9.87152C11.4316 9.66406 11.5992 9.49652 11.8066 9.49652H12.5552C12.7625 9.49652 12.9302 9.66406 12.9302 9.87152C12.9302 10.0788 12.7625 10.2465 12.5552 10.2465Z" fill="#666666"/>
<path d="M11.4312 11.7465H10.6797C10.4722 11.7465 10.3047 11.5788 10.3047 11.3715C10.3047 11.1641 10.4722 10.9965 10.6797 10.9965H11.4312C11.6386 10.9965 11.8062 11.1641 11.8062 11.3715C11.8062 11.5788 11.6386 11.7465 11.4312 11.7465Z" fill="#666666"/>
<path d="M12.9395 18.8723C12.732 18.8723 12.5645 18.7045 12.5645 18.4973C12.5645 17.8765 13.0696 17.3715 13.6902 17.3715C13.8976 17.3715 14.0652 17.5391 14.0652 17.7465C14.0652 17.9538 13.8976 18.1215 13.6902 18.1215C13.4829 18.1215 13.3145 18.2898 13.3145 18.4973C13.3145 18.7045 13.1465 18.8723 12.9395 18.8723Z" fill="#666666"/>
<path d="M16.6914 18.8723C16.4841 18.8723 16.3164 18.7045 16.3164 18.4973C16.3164 18.2902 16.1485 18.1223 15.9414 18.1223C15.7341 18.1223 15.5664 17.9545 15.5664 17.7473C15.5664 17.5398 15.7341 17.3723 15.9414 17.3723C16.5618 17.3723 17.0664 17.8769 17.0664 18.4973C17.0664 18.7045 16.8989 18.8723 16.6914 18.8723Z" fill="#666666"/>
<path d="M16.6906 19.623H12.9395C12.732 19.623 12.5645 19.4554 12.5645 19.248C12.5645 19.0405 12.732 18.873 12.9395 18.873H16.6909C16.8984 18.873 17.0659 19.0405 17.0659 19.248C17.0659 19.4554 16.898 19.623 16.6906 19.623Z" fill="#666666"/>
<path d="M15.9709 18.1215H13.6602C13.4529 18.1215 13.2852 17.9538 13.2852 17.7465C13.2852 17.5391 13.4529 17.3715 13.6602 17.3715H15.9709C16.1784 17.3715 16.3459 17.5391 16.3459 17.7465C16.3459 17.9538 16.1784 18.1215 15.9709 18.1215Z" fill="#666666"/>
<path d="M13.6895 18.1215C13.482 18.1215 13.3145 17.9538 13.3145 17.7465V15.4973C13.3145 15.2898 13.482 15.1223 13.6895 15.1223C13.8969 15.1223 14.0645 15.2898 14.0645 15.4973V17.7465C14.0645 17.9538 13.8969 18.1215 13.6895 18.1215Z" fill="#666666"/>
<path d="M15.9414 18.1223C15.7341 18.1223 15.5664 17.9545 15.5664 17.7473V15.4973C15.5664 15.2898 15.7341 15.1223 15.9414 15.1223C16.1489 15.1223 16.3164 15.2898 16.3164 15.4973V17.7473C16.3164 17.9545 16.1489 18.1223 15.9414 18.1223Z" fill="#666666"/>
<path d="M12.9395 19.623C12.732 19.623 12.5645 19.4554 12.5645 19.248V18.4973C12.5645 18.2898 12.732 18.1223 12.9395 18.1223C13.1469 18.1223 13.3145 18.2898 13.3145 18.4973V19.248C13.3145 19.4554 13.1465 19.623 12.9395 19.623Z" fill="#666666"/>
<path d="M16.6914 19.623C16.4841 19.623 16.3164 19.4554 16.3164 19.248V18.4973C16.3164 18.2898 16.4841 18.1223 16.6914 18.1223C16.8989 18.1223 17.0664 18.2898 17.0664 18.4973V19.248C17.0664 19.4554 16.8989 19.623 16.6914 19.623Z" fill="#666666"/>
<path d="M15.9409 15.8723H13.6895C13.482 15.8723 13.3145 15.7045 13.3145 15.4973C13.3145 15.2898 13.482 15.1223 13.6895 15.1223H15.9409C16.1484 15.1223 16.3159 15.2898 16.3159 15.4973C16.3159 15.7045 16.1484 15.8723 15.9409 15.8723Z" fill="#666666"/>
<path d="M16.3156 16.9973H13.3145C13.107 16.9973 12.9395 16.8295 12.9395 16.6223C12.9395 16.4148 13.107 16.2473 13.3145 16.2473H16.3156C16.523 16.2473 16.6906 16.4148 16.6906 16.6223C16.6906 16.8295 16.523 16.9973 16.3156 16.9973Z" fill="#666666"/>
<path d="M17.8145 18.8723C17.607 18.8723 17.4395 18.7045 17.4395 18.4973C17.4395 17.8765 17.9446 17.3715 18.5652 17.3715C18.7726 17.3715 18.9402 17.5391 18.9402 17.7465C18.9402 17.9538 18.7726 18.1215 18.5652 18.1215C18.3579 18.1215 18.1895 18.2898 18.1895 18.4973C18.1895 18.7045 18.0215 18.8723 17.8145 18.8723Z" fill="#666666"/>
<path d="M21.5664 18.8723C21.3591 18.8723 21.1914 18.7045 21.1914 18.4973C21.1914 18.2902 21.0235 18.1223 20.8164 18.1223C20.6091 18.1223 20.4414 17.9545 20.4414 17.7473C20.4414 17.5398 20.6091 17.3723 20.8164 17.3723C21.4368 17.3723 21.9414 17.8769 21.9414 18.4973C21.9414 18.7045 21.7739 18.8723 21.5664 18.8723Z" fill="#666666"/>
<path d="M21.5656 19.623H17.8145C17.607 19.623 17.4395 19.4554 17.4395 19.248C17.4395 19.0405 17.607 18.873 17.8145 18.873H21.5659C21.7734 18.873 21.9409 19.0405 21.9409 19.248C21.9409 19.4554 21.773 19.623 21.5656 19.623Z" fill="#666666"/>
<path d="M20.8459 18.1215H18.5352C18.3279 18.1215 18.1602 17.9538 18.1602 17.7465C18.1602 17.5391 18.3279 17.3715 18.5352 17.3715H20.8459C21.0534 17.3715 21.2209 17.5391 21.2209 17.7465C21.2209 17.9538 21.0534 18.1215 20.8459 18.1215Z" fill="#666666"/>
<path d="M18.5645 18.1215C18.357 18.1215 18.1895 17.9538 18.1895 17.7465V15.4973C18.1895 15.2898 18.357 15.1223 18.5645 15.1223C18.7719 15.1223 18.9395 15.2898 18.9395 15.4973V17.7465C18.9395 17.9538 18.7719 18.1215 18.5645 18.1215Z" fill="#666666"/>
<path d="M20.8164 18.1223C20.6091 18.1223 20.4414 17.9545 20.4414 17.7473V15.4973C20.4414 15.2898 20.6091 15.1223 20.8164 15.1223C21.0239 15.1223 21.1914 15.2898 21.1914 15.4973V17.7473C21.1914 17.9545 21.0239 18.1223 20.8164 18.1223Z" fill="#666666"/>
<path d="M17.8145 19.623C17.607 19.623 17.4395 19.4554 17.4395 19.248V18.4973C17.4395 18.2898 17.607 18.1223 17.8145 18.1223C18.0219 18.1223 18.1895 18.2898 18.1895 18.4973V19.248C18.1895 19.4554 18.0215 19.623 17.8145 19.623Z" fill="#666666"/>
<path d="M21.5664 19.623C21.3591 19.623 21.1914 19.4554 21.1914 19.248V18.4973C21.1914 18.2898 21.3591 18.1223 21.5664 18.1223C21.7739 18.1223 21.9414 18.2898 21.9414 18.4973V19.248C21.9414 19.4554 21.7739 19.623 21.5664 19.623Z" fill="#666666"/>
<path d="M20.8159 15.8723H18.5645C18.357 15.8723 18.1895 15.7045 18.1895 15.4973C18.1895 15.2898 18.357 15.1223 18.5645 15.1223H20.8159C21.0234 15.1223 21.1909 15.2898 21.1909 15.4973C21.1909 15.7045 21.0234 15.8723 20.8159 15.8723Z" fill="#666666"/>
<path d="M21.1906 16.9973H18.1895C17.982 16.9973 17.8145 16.8295 17.8145 16.6223C17.8145 16.4148 17.982 16.2473 18.1895 16.2473H21.1906C21.398 16.2473 21.5656 16.4148 21.5656 16.6223C21.5656 16.8295 21.398 16.9973 21.1906 16.9973Z" fill="#666666"/>
</g>
<defs>
<clipPath id="clip0_10414_306">
<rect width="24" height="24" fill="white" transform="translate(0.931641 0.677979)"/>
</clipPath>
</defs>
</svg>
