<svg width="25" height="25" viewBox="0 0 25 25" fill="none" xmlns="http://www.w3.org/2000/svg">
<g clip-path="url(#clip0_10414_259)">
<path d="M0.9375 24.6922H10.8235V19.0229H0.9375V24.6922ZM3.09966 20.491H8.70816V21.8966H3.09966V20.491Z" fill="#666666"/>
<path d="M0.9375 17.6173H10.8235V12.0418H0.9375V17.6173ZM3.09966 13.5374H8.70816V14.943H3.09966V13.5374Z" fill="#666666"/>
<path d="M12.2285 24.6921H24.9257V12.0418H12.2285V24.6921ZM20.6621 13.5374H22.0677V14.9777H20.6621V13.5374ZM17.8509 13.5374H19.2565V14.9777H17.8509V13.5374ZM15.0397 13.5374H16.4453V14.9777H15.0397V13.5374ZM15.0397 16.2352H22.0677V21.881H15.0397V16.2352Z" fill="#666666"/>
<path d="M20.6621 3.93265V0.692139H16.4453V3.935L12.2285 6.74614V9.23065H24.9257V6.74379L20.6621 3.93265Z" fill="#666666"/>
</g>
<defs>
<clipPath id="clip0_10414_259">
<rect width="24" height="24" fill="white" transform="translate(0.931641 0.692139)"/>
</clipPath>
</defs>
</svg>
