<svg width="25" height="25" viewBox="0 0 25 25" fill="none" xmlns="http://www.w3.org/2000/svg">
<g clip-path="url(#clip0_10414_285)">
<path d="M24.9316 7.1427V2.4552C24.9316 1.55056 24.1957 0.814575 23.291 0.814575H14.8535C13.9489 0.814575 13.2129 1.55056 13.2129 2.4552V7.1427C13.2129 8.04734 13.9489 8.78333 14.8535 8.78333H16.7655L16.4139 10.1896H12.4785L12.3357 7.04693C12.2843 5.91781 11.3587 5.03333 10.2285 5.03333H6.35358C5.22333 5.03333 4.29773 5.91781 4.24636 7.04693L4.10353 10.1896H1.63477C1.24645 10.1896 0.931641 10.5044 0.931641 10.8927V23.0802C0.931641 23.4685 1.24645 23.7833 1.63477 23.7833C2.02308 23.7833 2.33789 23.4685 2.33789 23.0802V14.4083H3.93586C3.98705 14.9872 4.23 15.5268 4.63927 15.9551C5.05542 16.3906 5.59439 16.6595 6.18169 16.7317V17.924C6.18169 18.749 6.79397 19.4335 7.58794 19.5476V21.2373L4.81664 22.0291C4.51472 22.1154 4.30664 22.3913 4.30664 22.7052V24.1115C4.30664 24.4998 4.62145 24.8146 5.00977 24.8146C5.39808 24.8146 5.71289 24.4998 5.71289 24.1115V23.2355L7.58789 22.6998V23.6427C7.58789 24.031 7.9027 24.3458 8.29102 24.3458C8.67933 24.3458 8.99414 24.031 8.99414 23.6427V22.6999L10.8691 23.2356V24.1115C10.8691 24.4998 11.184 24.8146 11.5723 24.8146C11.9606 24.8146 12.2754 24.4998 12.2754 24.1115V22.7052C12.2754 22.3913 12.0673 22.1154 11.7654 22.0291L8.99414 21.2374V19.5476C9.78811 19.4335 10.4004 18.749 10.4004 17.924V16.7317C10.9877 16.6595 11.5267 16.3906 11.9428 15.9552C12.352 15.5269 12.595 14.9872 12.6462 14.4084H14.1504V23.0802C14.1504 23.4686 14.4652 23.7834 14.8535 23.7834C15.2418 23.7834 15.5566 23.4686 15.5566 23.0802V20.9709H23.5254V23.0802C23.5254 23.4686 23.8402 23.7834 24.2285 23.7834C24.6168 23.7834 24.9316 23.4686 24.9316 23.0802V10.8927C24.9316 10.5044 24.6168 10.1896 24.2285 10.1896H21.7306L21.379 8.78333H23.291C24.1957 8.78333 24.9316 8.04734 24.9316 7.1427ZM3.97566 13.0021H2.33789V11.5958H4.03959L3.97566 13.0021ZM8.99414 17.924C8.99414 18.0532 8.889 18.1583 8.75977 18.1583H7.82227C7.69303 18.1583 7.58789 18.0532 7.58789 17.924V16.7521H8.99414V17.924ZM10.9261 14.9835C10.7029 15.2172 10.402 15.3458 10.0789 15.3458H6.5032C6.18009 15.3458 5.8792 15.2172 5.65598 14.9835C5.43272 14.75 5.31787 14.4435 5.33255 14.1207L5.65116 7.11073C5.66827 6.73442 5.9768 6.43958 6.35353 6.43958H10.2285C10.6052 6.43958 10.9138 6.73442 10.9309 7.11078L11.2495 14.1207C11.2642 14.4435 11.1494 14.75 10.9261 14.9835ZM23.5254 19.5646H15.5566V14.4083H23.5254V19.5646ZM23.5254 11.5958V13.0021H12.6064L12.5424 11.5958H23.5254ZM17.8634 10.1896L18.215 8.78333H19.9295L20.2811 10.1896H17.8634ZM14.8535 7.37708C14.7243 7.37708 14.6191 7.27193 14.6191 7.1427V2.4552C14.6191 2.32597 14.7243 2.22083 14.8535 2.22083H23.291C23.4202 2.22083 23.5254 2.32597 23.5254 2.4552V7.1427C23.5254 7.27193 23.4202 7.37708 23.291 7.37708H14.8535Z" fill="#666666"/>
<path d="M18.1348 17.2208H20.9473C21.3356 17.2208 21.6504 16.906 21.6504 16.5177C21.6504 16.1294 21.3356 15.8146 20.9473 15.8146H18.1348C17.7465 15.8146 17.4316 16.1294 17.4316 16.5177C17.4316 16.906 17.7465 17.2208 18.1348 17.2208Z" fill="#666666"/>
</g>
<defs>
<clipPath id="clip0_10414_285">
<rect width="24" height="24" fill="white" transform="translate(0.931641 0.814575)"/>
</clipPath>
</defs>
</svg>
