<svg width="46" height="17" viewBox="0 0 46 17" fill="none" xmlns="http://www.w3.org/2000/svg">
<path d="M30.3998 12.5447V10.5427H25.4858V9.45068L30.1758 2.74468H31.7858V9.32468H33.1858V10.5427H31.7858V12.5447H30.3998ZM27.0118 9.32468H30.4838V4.28468L27.0118 9.32468ZM35.1331 12.6147C34.8624 12.6147 34.6384 12.5307 34.4611 12.3627C34.2931 12.1853 34.2091 11.9753 34.2091 11.7327C34.2091 11.4807 34.2931 11.2707 34.4611 11.1027C34.6384 10.9253 34.8624 10.8367 35.1331 10.8367C35.4038 10.8367 35.6231 10.9253 35.7911 11.1027C35.9591 11.2707 36.0431 11.4807 36.0431 11.7327C36.0431 11.9753 35.9591 12.1853 35.7911 12.3627C35.6231 12.5307 35.4038 12.6147 35.1331 12.6147ZM40.9409 12.7127C40.2969 12.7127 39.7136 12.596 39.1909 12.3627C38.6776 12.12 38.2669 11.784 37.9589 11.3547C37.6602 10.9253 37.5109 10.426 37.5109 9.85668C37.5109 9.45534 37.5856 9.08668 37.7349 8.75068C37.8842 8.40534 38.0942 8.10668 38.3649 7.85468C38.6356 7.60268 38.9529 7.42068 39.3169 7.30868C38.8316 7.11268 38.4489 6.82334 38.1689 6.44068C37.8889 6.05801 37.7489 5.63801 37.7489 5.18068C37.7489 4.70468 37.8749 4.27068 38.1269 3.87868C38.3789 3.48668 38.7429 3.17401 39.2189 2.94068C39.6949 2.69801 40.2689 2.57668 40.9409 2.57668C41.6129 2.57668 42.1869 2.69801 42.6629 2.94068C43.1389 3.17401 43.4982 3.48668 43.7409 3.87868C43.9929 4.27068 44.1189 4.70468 44.1189 5.18068C44.1189 5.63801 43.9789 6.06268 43.6989 6.45468C43.4282 6.83734 43.0502 7.12201 42.5649 7.30868C42.9289 7.42068 43.2462 7.60268 43.5169 7.85468C43.7876 8.10668 43.9976 8.40534 44.1469 8.75068C44.2962 9.08668 44.3709 9.45534 44.3709 9.85668C44.3709 10.426 44.2169 10.9253 43.9089 11.3547C43.6102 11.784 43.1996 12.12 42.6769 12.3627C42.1636 12.596 41.5849 12.7127 40.9409 12.7127ZM40.9409 11.5087C41.6222 11.5087 42.1309 11.35 42.4669 11.0327C42.8122 10.706 42.9849 10.2813 42.9849 9.75868C42.9849 9.17068 42.7982 8.72268 42.4249 8.41468C42.0609 8.10668 41.5662 7.95268 40.9409 7.95268C40.3156 7.95268 39.8162 8.10668 39.4429 8.41468C39.0789 8.72268 38.8969 9.17068 38.8969 9.75868C38.8969 10.2813 39.0649 10.706 39.4009 11.0327C39.7462 11.35 40.2596 11.5087 40.9409 11.5087ZM40.9409 6.84668C41.4916 6.84668 41.9256 6.70201 42.2429 6.41268C42.5696 6.12334 42.7329 5.75468 42.7329 5.30668C42.7329 4.79334 42.5742 4.40601 42.2569 4.14468C41.9396 3.88334 41.5009 3.75268 40.9409 3.75268C40.3902 3.75268 39.9562 3.88334 39.6389 4.14468C39.3216 4.40601 39.1629 4.79334 39.1629 5.30668C39.1629 5.75468 39.3216 6.12334 39.6389 6.41268C39.9562 6.70201 40.3902 6.84668 40.9409 6.84668Z" fill="black"/>
<g clip-path="url(#clip0_10414_175)">
<path d="M16.8919 6.18216C16.7871 5.85817 16.4998 5.62806 16.1598 5.59742L11.5418 5.1781L9.71568 0.903944C9.58103 0.590703 9.27438 0.387939 8.93368 0.387939C8.59297 0.387939 8.28632 0.590703 8.15167 0.904676L6.32558 5.1781L1.7068 5.59742C1.36744 5.6288 1.08081 5.85817 0.975463 6.18216C0.870114 6.50614 0.967406 6.86149 1.22413 7.0855L4.71482 10.1469L3.68549 14.681C3.61017 15.0144 3.73957 15.359 4.01619 15.559C4.16488 15.6664 4.33883 15.7211 4.51425 15.7211C4.6655 15.7211 4.81553 15.6803 4.95017 15.5998L8.93368 13.219L12.9157 15.5998C13.2071 15.7751 13.5744 15.7591 13.8504 15.559C14.1272 15.3584 14.2564 15.0137 14.1811 14.681L13.1518 10.1469L16.6425 7.08611C16.8992 6.86149 16.9972 6.50675 16.8919 6.18216Z" fill="#FFB624"/>
</g>
<defs>
<clipPath id="clip0_10414_175">
<rect width="16" height="16" fill="white" transform="translate(0.933594 0.0446777)"/>
</clipPath>
</defs>
</svg>
